# File created by Blade
# Date/Time:  Tue Sep 30 19:29:51 2014
#---------------------------------------------------------
:version 1.10
:name HOM
:units
  mass 1.0
  length 1.000000
  angle deg
:documentation
     Acclaim Skeleton File
:root
   axis xyz
   order TX TY TZ RX RY RZ
   position 0.000000 0.000000 0.000000
   orientation 0 0 0
:bonedata
   begin
      id 1
      name RightUpLeg_dum
      direction -1.000000 0.000000 0.000000
      length 3.766986
      axis 0.0 0.0 0.0 xyz
   end
   begin
      id 2
      name LeftUpLeg_dum
      direction 1.000000 0.000000 0.000000
      length 3.766986
      axis 0.0 0.0 0.0 xyz
   end
   begin
      id 3
      name Spine_dum
      direction 0.000000 1.000000 0.000000
      length 7.779697
      axis 0.0 0.0 0.0 xyz
   end
   begin
      id 4
      name RightUpLeg
      direction 0.000000 -1.000000 0.000000
      length 18.017682
      axis 0.0 0.0 0.0 xyz
      dof rx ry rz
   end
   begin
      id 5
      name RightLeg
      direction 0.000000 -1.000000 0.000000
      length 16.881075
      axis 0.0 0.0 0.0 xyz
      dof rx ry rz
   end
   begin
      id 6
      name RightFoot
      direction 0.000000 -0.258819 0.965926
      length 5.770812
      axis 15.0 0.0 0.0 xyz
      dof rx ry rz
   end
   begin
      id 7
      name RightToeBase
      direction 0.000000 0.000000 1.000000
      length 2.952750
      axis 0.0 0.0 0.0 xyz
      dof rx ry rz
   end
   begin
      id 8
      name LeftUpLeg
      direction 0.000000 -1.000000 0.000000
      length 18.017682
      axis 0.0 0.0 0.0 xyz
      dof rx ry rz
   end
   begin
      id 9
      name LeftLeg
      direction 0.000000 -1.000000 0.000000
      length 16.881075
      axis 0.0 0.0 0.0 xyz
      dof rx ry rz
   end
   begin
      id 10
      name LeftFoot
      direction 0.000000 -0.258819 0.965926
      length 5.770812
      axis 15.0 0.0 0.0 xyz
      dof rx ry rz
   end
   begin
      id 11
      name LeftToeBase
      direction 0.000000 0.000000 1.000000
      length 2.952750
      axis 0.0 0.0 0.0 xyz
      dof rx ry rz
   end
   begin
      id 12
      name Spine
      direction 0.000000 1.000000 0.000000
      length 0.000000
      axis 0.0 0.0 0.0 xyz
      dof rx ry rz
   end
   begin
      id 13
      name Spine_dum1
      direction 0.000000 1.000000 0.000000
      length 10.941760
      axis 0.0 0.0 0.0 xyz
   end
   begin
      id 14
      name Spine_dum2
      direction 0.000000 1.000000 0.000000
      length 10.941760
      axis 0.0 0.0 0.0 xyz
   end
   begin
      id 15
      name Spine_dum3
      direction 0.000000 1.000000 0.000000
      length 16.646042
      axis 0.0 0.0 0.0 xyz
   end
   begin
      id 16
      name RightShoulder
      direction -1.000000 0.000000 0.000000
      length 7.708937
      axis 0.0 0.0 90.0 xyz
      dof rx ry rz
   end
   begin
      id 17
      name RightArm
      direction -1.000000 0.000000 0.000000
      length 11.521345
      axis 0.0 0.0 90.0 xyz
      dof rx ry rz
   end
   begin
      id 18
      name RightForeArm
      direction -1.000000 0.000000 0.000000
      length 10.175898
      axis 0.0 0.0 90.0 xyz
      dof ry rz rx
   end
   begin
      id 19
      name RightHand
      direction -1.000000 0.000000 0.000000
      length 0.000000
      axis 0.0 0.0 90.0 xyz
      dof rx ry rz
   end
   begin
      id 20
      name RightHand_dum1
      direction -1.000000 0.000000 0.000000
      length 3.937000
      axis 0.0 0.0 90.0 xyz
   end
   begin
      id 21
      name RightHand_dum2
      direction 0.000000 0.000000 0.000000
      length 0.000000
      axis 0.0 0.0 90.0 xyz
   end
   begin
      id 22
      name RightHandThumb1
      direction 0.000000 0.000000 1.000000
      length 3.937000
      axis 0.0 0.0 90.0 xyz
      dof rx rz ry
   end
   begin
      id 23
      name LeftShoulder
      direction 1.000000 0.000000 0.000000
      length 7.708937
      axis 0.0 0.0 -90.0 xyz
      dof rx ry rz
   end
   begin
      id 24
      name LeftArm
      direction 1.000000 0.000000 0.000000
      length 11.521345
      axis 0.0 0.0 -90.0 xyz
      dof rx ry rz
   end
   begin
      id 25
      name LeftForeArm
      direction 1.000000 0.000000 0.000000
      length 10.175898
      axis 0.0 0.0 -90.0 xyz
      dof ry rz rx
   end
   begin
      id 26
      name LeftHand
      direction 1.000000 0.000000 0.000000
      length 0.000000
      axis 0.0 0.0 -90.0 xyz
      dof rx ry rz
   end
   begin
      id 27
      name LeftHand_dum1
      direction 1.000000 0.000000 0.000000
      length 3.937000
      axis 0.0 0.0 -90.0 xyz
   end
   begin
      id 28
      name LeftHand_dum2
      direction 0.000000 0.000000 0.000000
      length 0.000000
      axis 0.0 0.0 -90.0 xyz
   end
   begin
      id 29
      name LeftHandThumb1
      direction 0.000000 0.000000 1.000000
      length 3.937000
      axis 0.0 0.0 -90.0 xyz
      dof rx rz ry
   end
   begin
      id 30
      name Head
      direction 0.000000 1.000000 0.000000
      length 4.527550
      axis 0.0 0.0 0.0 xyz
      dof rx ry rz
   end
:hierarchy
   begin
      root RightUpLeg_dum LeftUpLeg_dum Spine_dum
      RightUpLeg_dum RightUpLeg
      LeftUpLeg_dum LeftUpLeg
      Spine_dum Spine
      RightUpLeg RightLeg
      RightLeg RightFoot
      RightFoot RightToeBase
      LeftUpLeg LeftLeg
      LeftLeg LeftFoot
      LeftFoot LeftToeBase
      Spine Spine_dum1 Spine_dum2 Spine_dum3
      Spine_dum1 RightShoulder
      Spine_dum2 LeftShoulder
      Spine_dum3 Head
      RightShoulder RightArm
      RightArm RightForeArm
      RightForeArm RightHand
      RightHand RightHand_dum1 RightHand_dum2
      RightHand_dum2 RightHandThumb1
      LeftShoulder LeftArm
      LeftArm LeftForeArm
      LeftForeArm LeftHand
      LeftHand LeftHand_dum1 LeftHand_dum2
      LeftHand_dum2 LeftHandThumb1
   end

# File created by Blade
# Date/Time:  Mon Sep 22 17:46:01 2014
# Frame Rate: 120.000 fps
#------------------------------------------------------
:FULLY-SPECIFIED
:DEGREES
284
root 4.395157 37.733682 4.567654 -7.719125 20.009851 -6.997936
RightUpLeg -32.668912 25.530577 8.770066
RightLeg 68.363355 -0.000000 -0.000000
RightFoot -7.757758 -10.063087 13.565656
RightToeBase -0.464163 -0.000000 0.000000
LeftUpLeg 11.029700 -29.057803 -2.867479
LeftLeg 2.428371 -0.000000 -0.000000
LeftFoot -9.098060 16.190109 -11.070309
LeftToeBase 3.504010 -0.000000 -0.000000
Spine 14.223681 -27.940733 -3.477588
RightShoulder -2.271441 -31.252550 -5.575242
RightArm 20.659944 -25.502277 61.124635
RightForeArm 7.373284 0.000000 42.670502
RightHand -0.684066 0.000000 -1.428701
RightHandThumb1 -24.326973 -0.000000 -32.862282
LeftShoulder -9.061708 30.396161 8.131688
LeftArm 64.014753 -7.870982 -66.894150
LeftForeArm 18.962279 -0.000000 79.134846
LeftHand -22.660560 -0.000000 14.719241
LeftHandThumb1 -26.253704 0.000000 33.147579
Head 13.595616 7.618111 11.619304
285
root 4.400944 37.728394 4.570047 -7.702514 19.734101 -6.964742
RightUpLeg -32.511446 25.502991 8.737506
RightLeg 67.939792 -0.000000 -0.000000
RightFoot -7.772579 -10.055688 13.582872
RightToeBase -0.351707 -0.000000 0.000000
LeftUpLeg 11.051125 -28.965545 -2.928762
LeftLeg 2.478853 -0.000000 -0.000000
LeftFoot -9.181570 16.346558 -11.044338
LeftToeBase 3.558641 -0.000000 -0.000000
Spine 14.141269 -27.708044 -3.350086
RightShoulder -2.248866 -31.248547 -5.641759
RightArm 20.693541 -25.450710 61.064720
RightForeArm 7.333395 -0.000000 42.743839
RightHand -0.623336 -0.000000 -1.517868
RightHandThumb1 -24.326973 -0.000000 -32.862282
LeftShoulder -9.183061 30.440829 7.977621
LeftArm 63.906851 -7.820468 -66.881660
LeftForeArm 19.017532 -0.000000 79.412287
LeftHand -22.683758 -0.000000 14.389942
LeftHandThumb1 -26.253704 0.000000 33.147579
Head 13.672393 7.797469 11.564186
286
root 4.405248 37.724929 4.571014 -7.677029 19.474366 -6.935917
RightUpLeg -32.355170 25.458493 8.707406
RightLeg 67.499483 -0.000000 -0.000000
RightFoot -7.701998 -10.085344 13.606157
RightToeBase -0.644219 -0.000000 0.000000
LeftUpLeg 11.044963 -28.877866 -2.973220
LeftLeg 2.541427 -0.000000 -0.000000
LeftFoot -9.248439 16.479479 -11.033360
LeftToeBase 3.469299 -0.000000 -0.000000
Spine 14.046977 -27.499022 -3.227456
RightShoulder -2.199296 -31.245161 -5.707974
RightArm 20.702969 -25.373562 61.019992
RightForeArm 7.369383 -0.000000 42.821875
RightHand -0.591776 -0.000000 -1.738378
RightHandThumb1 -24.326973 -0.000000 -32.862282
LeftShoulder -9.336447 30.533464 7.807201
LeftArm 63.857056 -7.772763 -66.855376
LeftForeArm 18.978514 -0.000000 79.650637
LeftHand -22.722180 -0.000000 14.493102
LeftHandThumb1 -26.253704 0.000000 33.147579
Head 13.777922 7.865479 11.423955
287
root 4.407908 37.720489 4.570412 -7.648587 19.229632 -6.902367
RightUpLeg -32.205969 25.422576 8.663319
RightLeg 67.087452 -0.000000 -0.000000
RightFoot -7.734974 -10.077236 13.644473
RightToeBase -0.214561 -0.000000 0.000000
LeftUpLeg 11.022493 -28.811921 -3.024785
LeftLeg 2.633142 -0.000000 -0.000000
LeftFoot -9.322825 16.675836 -10.983447
LeftToeBase 3.130364 -0.000000 -0.000000
Spine 13.962536 -27.283765 -3.128977
RightShoulder -2.180119 -31.227356 -5.745283
RightArm 20.697331 -25.279411 60.997078
RightForeArm 7.367623 -0.000000 42.910885
RightHand -0.683344 -0.000000 -1.496278
RightHandThumb1 -24.326973 -0.000000 -32.862282
LeftShoulder -9.473230 30.594331 7.683092
LeftArm 63.792282 -7.710081 -66.851684
LeftForeArm 18.951118 -0.000000 79.870506
LeftHand -22.721252 0.000000 14.485639
LeftHandThumb1 -26.253704 0.000000 33.147579
Head 13.862472 7.894346 11.345088
288
root 4.410961 37.715994 4.571445 -7.630483 18.986538 -6.847266
RightUpLeg -32.030436 25.384277 8.609576
RightLeg 66.677031 -0.000000 -0.000000
RightFoot -7.647974 -10.134579 13.629800
RightToeBase -0.424327 -0.000000 0.000000
LeftUpLeg 11.018663 -28.692135 -3.097125
LeftLeg 2.723461 -0.000000 -0.000000
LeftFoot -9.395022 16.802890 -10.934060
LeftToeBase 3.098155 -0.000000 -0.000000
Spine 13.896654 -27.065640 -3.092461
RightShoulder -2.145753 -31.217359 -5.744892
RightArm 20.697442 -25.216855 60.940286
RightForeArm 7.390815 0.000000 42.984726
RightHand -0.653309 -0.000000 -1.594808
RightHandThumb1 -24.326973 -0.000000 -32.862282
LeftShoulder -9.581632 30.653904 7.610661
LeftArm 63.710610 -7.664402 -66.885923
LeftForeArm 18.970489 -0.000000 80.072282
LeftHand -22.730014 -0.000000 14.299126
LeftHandThumb1 -26.253704 0.000000 33.147579
Head 13.945156 7.785545 11.240947
289
root 4.418450 37.711430 4.576166 -7.616035 18.728782 -6.826551
RightUpLeg -31.853216 25.365109 8.588456
RightLeg 66.284471 -0.000000 -0.000000
RightFoot -7.623008 -10.124465 13.558212
RightToeBase -0.694656 -0.000000 0.000000
LeftUpLeg 11.029803 -28.625166 -3.151860
LeftLeg 2.792268 -0.000000 -0.000000
LeftFoot -9.475926 16.978634 -10.916109
LeftToeBase 3.017996 -0.000000 -0.000000
Spine 13.790073 -26.872465 -2.934707
RightShoulder -2.120595 -31.185557 -5.845057
RightArm 20.682892 -25.165855 60.946967
RightForeArm 7.380202 -0.000000 43.053561
RightHand -0.655867 -0.000000 -1.791952
RightHandThumb1 -24.326973 -0.000000 -32.862282
LeftShoulder -9.735970 30.705296 7.424551
LeftArm 63.615944 -7.640452 -66.876360
LeftForeArm 18.893420 -0.000000 80.267648
LeftHand -22.689942 -0.000000 14.357537
LeftHandThumb1 -26.253704 0.000000 33.147579
Head 14.081251 8.111816 11.258448
290
root 4.421772 37.707790 4.581702 -7.605796 18.499710 -6.818626
RightUpLeg -31.673200 25.329637 8.577664
RightLeg 65.879277 -0.000000 -0.000000
RightFoot -7.554384 -10.171337 13.509817
RightToeBase -0.600639 -0.000000 0.000000
LeftUpLeg 11.012743 -28.525316 -3.176559
LeftLeg 2.901383 -0.000000 -0.000000
LeftFoot -9.591204 17.094082 -10.891366
LeftToeBase 3.031395 -0.000000 -0.000000
Spine 13.680588 -26.687383 -2.798427
RightShoulder -2.087395 -31.174805 -5.911593
RightArm 20.652854 -25.079901 60.974528
RightForeArm 7.393864 -0.000000 43.099077
RightHand -0.644266 -0.000000 -1.785920
RightHandThumb1 -24.326973 -0.000000 -32.862282
LeftShoulder -9.838144 30.744604 7.299424
LeftArm 63.501975 -7.623524 -66.885675
LeftForeArm 18.768004 -0.000000 80.431738
LeftHand -22.544570 -0.000000 14.384397
LeftHandThumb1 -26.253704 0.000000 33.147579
Head 14.221182 8.169812 11.158554
